<?xml version="1.0" standalone="no"?>
<!DOCTYPE svg PUBLIC "-//W3C//DTD SVG 20010904//EN"
 "http://www.w3.org/TR/2001/REC-SVG-20010904/DTD/svg10.dtd">
<svg version="1.0" xmlns="http://www.w3.org/2000/svg"
 width="114.000000pt" height="120.000000pt" viewBox="0 0 114.000000 120.000000"
 preserveAspectRatio="xMidYMid meet">

<g transform="translate(0.000000,120.000000) scale(0.100000,-0.100000)"
fill="#000000" stroke="none">
<path d="M0 600 l0 -600 226 2 227 3 3 35 3 35 -15 -33 c-16 -37 -28 -43 -19
-9 5 19 4 20 -5 4 -13 -21 -34 -23 -26 -2 3 8 1 15 -4 15 -6 0 -10 -4 -10 -10
0 -5 -4 -10 -10 -10 -5 0 5 24 23 53 19 28 44 78 57 110 13 31 29 57 36 57 20
0 62 -68 85 -140 12 -36 29 -75 37 -87 18 -29 50 -30 54 -3 4 27 22 27 26 0 3
-19 10 -20 228 -20 l224 0 0 600 0 600 -570 0 -570 0 0 -600z m929 472 l53
-47 -148 -74 c-82 -40 -171 -89 -199 -108 l-50 -35 51 53 c28 30 88 100 134
157 45 56 88 102 94 102 7 0 36 -21 65 -48z m-16 -429 c-17 -35 -51 -61 -41
-32 3 8 1 26 -3 42 -9 30 2 35 25 11 15 -14 16 -14 16 4 0 11 3 29 7 39 7 16
8 16 11 -5 2 -12 -5 -39 -15 -59z m-355 25 c-3 -7 -13 -14 -24 -15 -10 -2 -13
0 -6 3 6 3 10 10 6 15 -3 5 2 9 11 9 9 0 15 -6 13 -12z m-68 -16 c0 -4 -5 -13
-12 -20 -9 -9 -8 -12 5 -12 12 0 17 -8 17 -31 0 -16 4 -28 9 -25 5 4 7 -3 4
-14 -4 -14 0 -20 10 -20 19 0 29 14 42 58 10 31 11 32 32 17 12 -8 29 -37 38
-64 19 -58 18 -151 -2 -151 -7 0 -13 -6 -13 -14 0 -18 -98 -56 -143 -56 -39 0
-132 53 -158 90 -12 17 -20 51 -23 105 -5 66 -4 75 5 50 7 -16 14 -32 16 -35
8 -8 23 25 23 50 0 28 24 47 85 66 48 15 65 17 65 6z m160 -75 c0 -17 -6 -12
-25 22 -32 54 -32 61 0 27 14 -15 25 -37 25 -49z m42 -37 c4 0 9 17 9 38 1 36
2 36 8 7 7 -32 14 -27 25 18 4 15 11 25 16 22 15 -9 12 -82 -3 -97 -8 -7 -16
-20 -20 -28 -4 -12 -6 -11 -6 3 -1 9 -5 17 -9 17 -8 0 -14 -16 -37 -95 -2 -5
-4 22 -4 60 -1 39 -3 88 -6 110 -4 37 -3 37 7 -7 6 -27 15 -48 20 -48z m152
54 c44 -43 -8 -154 -71 -154 -28 0 -30 16 -3 32 11 7 20 21 20 30 0 10 4 18 9
18 5 0 11 10 14 22 5 18 9 19 21 9 13 -11 15 -9 11 10 -6 30 -23 39 -53 28
-22 -8 -23 -8 -12 6 16 19 44 19 64 -1z m-704 -23 c-12 -23 -13 -31 -2 -30 28
5 32 -2 15 -27 -15 -24 -17 -25 -24 -8 -6 17 -8 16 -18 -9 -6 -16 -11 -42 -11
-58 0 -17 -5 -28 -12 -27 -6 2 -17 -17 -24 -42 -7 -26 -12 -36 -13 -23 -1 28
51 184 73 218 19 29 31 34 16 6z m829 -58 c25 -26 53 -48 61 -49 19 -4 80 -69
80 -86 0 -7 -11 4 -25 25 -14 20 -27 37 -30 37 -2 0 -11 3 -21 7 -14 5 -11 -6
14 -49 37 -64 41 -80 11 -47 -19 22 -20 22 -16 4 3 -11 8 -29 12 -40 4 -11 -9
4 -29 34 -19 30 -33 58 -30 63 3 5 0 16 -8 25 -11 15 -11 16 5 10 9 -3 17 -3
17 1 0 10 -80 87 -105 100 -19 11 -19 11 -1 12 10 0 39 -21 65 -47z m-192 5
c-3 -8 -6 -5 -6 6 -1 11 2 17 5 13 3 -3 4 -12 1 -19z m-522 -15 c6 15 10 16
16 5 13 -20 11 -45 -7 -63 -11 -11 -15 -29 -12 -60 1 -24 0 -41 -5 -36 -4 4
-10 45 -12 92 -4 54 -2 77 4 64 8 -19 9 -19 16 -2z m696 -70 c28 -32 35 -50
12 -30 -13 11 -23 14 -27 8 -4 -6 -14 -8 -24 -5 -9 3 -1 -9 18 -26 l35 -32
-32 16 c-17 9 -39 26 -47 38 -18 25 -21 42 -7 34 5 -3 11 4 14 15 4 16 9 19
24 11 10 -6 25 -18 34 -29z m-666 -70 c-7 -67 -49 -208 -67 -228 -6 -6 -6 0 0
15 5 14 15 59 22 100 7 41 16 80 21 85 4 6 11 30 15 53 10 67 17 49 9 -25z
m575 29 c0 -4 15 -25 34 -45 36 -39 35 -47 -2 -21 -26 18 -58 74 -42 74 5 0
10 -4 10 -8z m-507 -76 c4 4 7 2 7 -4 0 -6 -4 -14 -10 -17 -5 -3 -10 -15 -10
-26 0 -10 -3 -19 -7 -19 -5 0 -9 28 -9 63 -2 59 -1 60 10 29 6 -18 15 -30 19
-26z m642 16 c-3 -3 -11 0 -18 7 -9 10 -8 11 6 5 10 -3 15 -9 12 -12z m-547
-74 c1 -44 -5 -64 -36 -118 l-37 -65 -3 34 c-5 45 6 101 19 101 6 0 6 -7 -1
-19 -5 -11 -10 -32 -10 -47 0 -35 20 -19 45 36 15 33 16 47 8 74 -8 24 -7 38
0 45 6 6 12 11 12 11 1 0 2 -24 3 -52z m149 -57 c11 -41 25 -77 31 -79 20 -6
121 100 128 136 4 19 11 29 19 26 10 -4 14 -39 5 -39 -1 0 -3 -7 -5 -16 -4
-25 -35 -57 -85 -92 -49 -34 -80 -65 -80 -80 0 -27 -14 11 -40 113 -17 62 -27
117 -24 122 12 19 33 -17 51 -91z m440 63 c-3 -3 -12 -4 -19 -1 -8 3 -5 6 6 6
11 1 17 -2 13 -5z"/>
<path d="M413 373 c11 -10 57 -13 57 -2 0 5 -14 9 -32 9 -17 0 -28 -3 -25 -7z"/>
<path d="M530 52 c0 -30 5 -52 11 -52 5 0 7 5 3 12 -5 8 -2 9 11 4 16 -6 16
-4 4 10 -7 9 -15 28 -17 42 -6 46 -12 37 -12 -16z"/>
<path d="M492 20 c0 -14 2 -19 5 -12 2 6 2 18 0 25 -3 6 -5 1 -5 -13z"/>
</g>
</svg>
